<svg xmlns="http://www.w3.org/2000/svg" width="25" height="25" viewBox="0 0 25 25" fill="none">
  <path d="M7.06932 2.69531C6.64813 2.69531 6.30688 3.03658 6.30688 3.45775V4.22018C6.30688 4.64137 6.64815 4.98261 7.06932 4.98261C7.49051 4.98261 7.83175 4.64134 7.83175 4.22018V3.45775C7.83175 3.03658 7.49051 2.69531 7.06932 2.69531Z" fill="#7AC693"/>
  <path d="M11.6438 2.69531C11.2226 2.69531 10.8813 3.03658 10.8813 3.45775V4.22018C10.8813 4.64137 11.2226 4.98261 11.6438 4.98261C12.065 4.98261 12.4062 4.64134 12.4062 4.22018V3.45775C12.4062 3.03658 12.065 2.69531 11.6438 2.69531Z" fill="#7AC693"/>
  <path d="M23.4392 10.4365C23.4392 8.84234 22.1533 7.54552 20.5728 7.54552C18.9924 7.54552 17.7065 8.84231 17.7065 10.4365C17.7065 11.7478 18.5777 12.8563 19.7665 13.2087V18.9395C19.7665 19.9685 19.074 20.8377 18.2545 20.8377H11.7457C11.1567 20.8377 10.6119 20.4326 10.4208 19.8526C10.2311 19.2765 10.2151 18.3684 10.2223 17.773H13.146C14.8148 17.773 16.1409 16.4861 16.5246 14.4944C16.5288 14.4718 16.532 14.449 16.5345 14.4261L17.3051 6.72922C17.3076 6.70391 17.3089 6.67858 17.3089 6.65327C17.3089 4.702 15.9587 3.23047 14.168 3.23047C13.7468 3.23047 13.4056 3.57174 13.4056 3.9929C13.4056 4.41407 13.7468 4.75534 14.168 4.75534C15.264 4.75534 15.7708 5.71386 15.7837 6.61777L15.0208 14.2382C14.8319 15.1729 14.2318 16.2481 13.146 16.2481H5.74542C4.72164 16.2481 4.01827 15.2251 3.87232 14.2564L3.10764 6.6178C3.12055 5.71389 3.62736 4.75536 4.72337 4.75536C5.14455 4.75536 5.4858 4.41409 5.4858 3.99293C5.4858 3.57176 5.14453 3.23049 4.72337 3.23049C2.93268 3.23049 1.58252 4.70202 1.58252 6.6533C1.58252 6.67861 1.58377 6.70394 1.58624 6.72925L2.35662 14.4262C2.35787 14.4373 2.35909 14.4485 2.36084 14.4594C2.59936 16.1062 3.83856 17.773 5.74542 17.773H8.6972C8.68855 18.4786 8.71109 19.5356 8.97238 20.3296C9.37321 21.5455 10.4876 22.3625 11.7457 22.3625H18.2545C19.929 22.3625 21.2914 20.827 21.2914 18.9395V13.2315C22.5246 12.9087 23.4392 11.7797 23.4392 10.4365ZM20.5728 11.8023C19.8332 11.8023 19.2314 11.1895 19.2314 10.4365C19.2314 9.68319 19.8332 9.07041 20.5728 9.07041C21.3124 9.07041 21.9143 9.68319 21.9143 10.4365C21.9143 11.1895 21.3124 11.8023 20.5728 11.8023Z" fill="#7AC693"/>
  <path d="M8.59424 13.3699V14.6406C8.59424 15.0618 8.93551 15.403 9.35667 15.403C9.77786 15.403 10.1191 15.0618 10.1191 14.6406V13.3699C10.1191 12.9487 9.77784 12.6074 9.35667 12.6074C8.93548 12.6074 8.59424 12.9487 8.59424 13.3699Z" fill="#7AC693"/>
  <path d="M7.24604 7.1025C7.51968 7.54305 8.27069 8.2886 9.34909 8.2886C10.4223 8.2886 11.1825 7.54875 11.4626 7.11142C11.6877 6.75998 11.5854 6.2971 11.237 6.06778C10.8886 5.83821 10.4173 5.93574 10.1834 6.28146C10.1802 6.28618 9.85107 6.76368 9.34911 6.76368C8.86104 6.76368 8.5575 6.32165 8.53704 6.29087C8.31304 5.93869 7.84658 5.83146 7.49142 6.05261C7.13359 6.27479 7.02379 6.74487 7.24604 7.1025Z" fill="#7AC693"/>
</svg>