<svg xmlns="http://www.w3.org/2000/svg" width="25" height="25" viewBox="0 0 25 25" fill="none">
  <path d="M17.8563 4.0153H19.8897C20.311 4.0153 20.6523 3.67398 20.6523 3.25277C20.6523 2.83155 20.311 2.49023 19.8897 2.49023H17.8563C17.435 2.49023 17.0938 2.83155 17.0938 3.25277C17.0938 3.67398 17.435 4.0153 17.8563 4.0153Z" fill="#F84042"/>
  <path d="M19.8897 5.53906H17.8563C17.435 5.53906 17.0938 5.88038 17.0938 6.3016C17.0938 6.72281 17.4351 7.06413 17.8563 7.06413H19.8897C20.311 7.06413 20.6523 6.72281 20.6523 6.3016C20.6523 5.88038 20.311 5.53906 19.8897 5.53906Z" fill="#F84042"/>
  <path d="M19.8897 8.58984H17.8563C17.435 8.58984 17.0938 8.93116 17.0938 9.35238C17.0938 9.77362 17.4351 10.1149 17.8563 10.1149H19.8897C20.311 10.1149 20.6523 9.77362 20.6523 9.35238C20.6523 8.93114 20.311 8.58984 19.8897 8.58984Z" fill="#F84042"/>
  <path d="M14.8809 10.0598C14.5106 9.85797 14.0479 9.99575 13.8471 10.3658C13.646 10.7359 13.783 11.1989 14.1531 11.3997C15.9585 12.3804 17.0802 14.2647 17.0802 16.3173C17.0802 19.4007 14.5717 21.9093 11.4882 21.9093C8.40473 21.9093 5.89618 19.4007 5.89618 16.3173C5.89618 14.2739 7.0107 12.3936 8.80464 11.4101C9.17374 11.2076 9.30902 10.7441 9.10673 10.3748C8.90417 10.0054 8.44123 9.86988 8.07138 10.0727C5.78896 11.324 4.37109 13.7169 4.37109 16.3173C4.37109 20.2417 7.56375 23.4344 11.4882 23.4344C15.4126 23.4344 18.6053 20.2417 18.6053 16.3173C18.6053 13.7052 17.1782 11.3074 14.8809 10.0598Z" fill="#F84042"/>
  <path d="M8.43797 9.21579C8.85921 9.21579 9.20051 8.87447 9.20051 8.45323V5.38693C9.20051 4.12546 10.2267 3.09931 11.4881 3.09931C12.7496 3.09931 13.7758 4.12546 13.7758 5.38693V8.45325C13.7758 8.87449 14.1171 9.21581 14.5383 9.21581C14.9596 9.21581 15.3008 8.87449 15.3008 8.45325V5.38693C15.3008 3.28448 13.5906 1.57422 11.4881 1.57422C9.38568 1.57422 7.67542 3.28448 7.67542 5.38693V8.45325C7.67542 8.87449 8.01673 9.21579 8.43797 9.21579Z" fill="#F84042"/>
  <path d="M8.9464 13.7578C8.52516 13.7578 8.18384 14.0991 8.18384 14.5203V15.2829C8.18384 15.7041 8.52516 16.0454 8.9464 16.0454C9.36764 16.0454 9.70893 15.7041 9.70893 15.2829V14.5203C9.70893 14.0991 9.36764 13.7578 8.9464 13.7578Z" fill="#F84042"/>
  <path d="M14.03 13.7578C13.6088 13.7578 13.2675 14.0991 13.2675 14.5203V15.2829C13.2675 15.7041 13.6088 16.0454 14.03 16.0454C14.4513 16.0454 14.7926 15.7041 14.7926 15.2829V14.5203C14.7926 14.0991 14.4513 13.7578 14.03 13.7578Z" fill="#F84042"/>
  <path d="M11.4811 19.3334C12.512 19.3334 13.242 18.623 13.5108 18.2033C13.7357 17.852 13.6337 17.3899 13.2857 17.1602C12.9369 16.9299 12.4663 17.0282 12.232 17.3725C12.229 17.3769 11.9304 17.8084 11.4811 17.8084C11.0457 17.8084 10.7711 17.4112 10.7518 17.3821C10.5274 17.0302 10.0615 16.9237 9.70627 17.1441C9.34859 17.3665 9.23861 17.8367 9.46079 18.1943C9.72368 18.6173 10.4448 19.3334 11.4811 19.3334Z" fill="#F84042"/>
</svg>