<svg xmlns="http://www.w3.org/2000/svg" width="22" height="22" viewBox="0 0 22 22" fill="none">
  <path d="M7.97755 13.7497C7.97322 13.7461 7.97005 13.7417 7.96561 13.7381C6.49409 12.5745 5.86621 11.3833 5.86621 9.75508C5.86621 9.38445 5.56583 9.08398 5.19512 9.08398C4.8244 9.08398 4.524 9.38448 4.524 9.75508C4.524 11.5442 5.17032 13 6.54421 14.2847C4.45314 15.9237 3.29233 17.6036 2.72503 19.7831C2.63174 20.1418 2.84671 20.5084 3.20542 20.6017C3.26223 20.6163 3.31902 20.6235 3.37495 20.6235C3.67316 20.6235 3.94535 20.4232 4.02399 20.1213C4.56467 18.0437 5.75659 16.471 8.00912 14.8626C8.31082 14.6472 8.38071 14.2281 8.16533 13.9265C8.11327 13.8535 8.04889 13.7948 7.97755 13.7497Z" fill="#F89D4E"/>
  <path d="M19.2947 19.7809C18.7218 17.6101 17.5776 15.9441 15.5325 14.3327C16.9381 13.0482 17.599 11.5764 17.599 9.75508C17.599 9.38446 17.2986 9.08398 16.9279 9.08398C16.5572 9.08398 16.2568 9.38448 16.2568 9.75508C16.2568 11.3825 15.6007 12.6183 14.1331 13.7564C14.0413 13.8038 13.958 13.8703 13.8939 13.9602C13.6785 14.2618 13.7484 14.6809 14.0501 14.8963C16.297 16.5008 17.4406 18.0151 17.997 20.1235C18.0763 20.4245 18.3481 20.6235 18.6454 20.6235C18.702 20.6235 18.7597 20.6163 18.8171 20.601C19.1754 20.5064 19.3893 20.1394 19.2947 19.7809Z" fill="#F89D4E"/>
  <path d="M5.10361 8.35085C5.46777 8.28782 5.71225 7.94092 5.65062 7.57641C5.64735 7.5575 5.34501 5.67494 6.50916 4.29744C7.38978 3.25528 8.89998 2.72693 10.9978 2.72693C13.0974 2.72693 14.6114 3.25627 15.4979 4.30017C16.6686 5.67863 16.3759 7.56077 16.373 7.57715C16.3103 7.94241 16.5554 8.28945 16.9209 8.35224C16.9594 8.3589 16.9976 8.36207 17.0354 8.36207C17.3561 8.36207 17.6396 8.13138 17.696 7.80457C17.7133 7.70352 18.1032 5.30867 16.5327 3.44512C15.3806 2.07793 13.5182 1.38477 10.9979 1.38477C8.47771 1.38477 6.61885 2.07782 5.47239 3.44483C3.90844 5.30981 4.31063 7.70665 4.32855 7.80778C4.39297 8.17194 4.74075 8.41443 5.10361 8.35085Z" fill="#F89D4E"/>
  <path d="M8.624 7.88281C8.25326 7.88281 7.95288 8.18331 7.95288 8.55393V9.26981C7.95288 9.64043 8.25326 9.9409 8.624 9.9409C8.99473 9.9409 9.29509 9.64041 9.29509 9.26981V8.55393C9.29509 8.18331 8.99471 7.88281 8.624 7.88281Z" fill="#F89D4E"/>
  <path d="M13.3965 7.88281C13.0257 7.88281 12.7253 8.18331 12.7253 8.55393V9.26981C12.7253 9.64043 13.0257 9.9409 13.3965 9.9409C13.7672 9.9409 14.0676 9.64041 14.0676 9.26981V8.55393C14.0676 8.18331 13.7672 7.88281 13.3965 7.88281Z" fill="#F89D4E"/>
  <path d="M12.6652 10.72C12.3576 10.5178 11.9436 10.604 11.7378 10.9082C11.735 10.9124 11.4453 11.3327 11.0036 11.3327C10.5741 11.3327 10.3067 10.9434 10.2888 10.9164C10.0915 10.6066 9.68106 10.5121 9.36845 10.7067C9.05365 10.9023 8.95687 11.3162 9.15262 11.631C9.39358 12.0186 10.0544 12.6749 11.0036 12.6749C11.9482 12.6749 12.6174 12.0236 12.8638 11.6386C13.0619 11.3293 12.9719 10.922 12.6652 10.72Z" fill="#F89D4E"/>
</svg>