<svg xmlns="http://www.w3.org/2000/svg" width="25" height="25" viewBox="0 0 25 25" fill="none">
  <path d="M16.6348 13.2678C16.6242 13.2426 16.612 13.2144 16.5982 13.1899C16.5194 13.0306 16.4344 12.8678 16.3429 12.7143C16.3167 12.6703 16.2868 12.6177 16.254 12.5812L10.0939 1.99926C9.95798 1.76596 9.70812 1.57422 9.43826 1.57422C9.43726 1.57422 9.43628 1.57422 9.43503 1.57422C9.16394 1.57422 8.91409 1.76941 8.7794 2.00468L2.67789 12.7116C2.64848 12.7464 2.6218 12.7845 2.59832 12.8255C2.52864 12.9471 2.46264 13.0704 2.40088 13.1957L2.39421 13.2081C2.38384 13.2278 2.3742 13.2476 2.36555 13.2679C1.92395 14.1874 1.69238 15.1942 1.69238 16.2077C1.69238 20.1923 5.19463 23.4339 9.49956 23.4339C13.8045 23.4339 17.3067 20.1908 17.3067 16.2062C17.3067 15.193 17.0759 14.1874 16.6348 13.2678ZM9.49954 21.9155C6.03187 21.9155 3.2107 19.3551 3.2107 16.2077C3.2107 15.406 3.38788 14.6367 3.73832 13.9156L9.44445 3.94728L15.2581 13.9111C15.606 14.6308 15.7884 15.4161 15.7884 16.2077C15.7884 19.3551 12.9672 21.9155 9.49954 21.9155Z" fill="#F89D4E"/>
  <path d="M22.8406 13.085C22.8235 13.0235 22.8013 12.9628 22.7679 12.9056L17.8956 4.53051C17.7616 4.30044 17.5167 4.10547 17.2506 4.10547C17.2469 4.10547 17.2434 4.10547 17.24 4.10547C16.9778 4.10547 16.7339 4.28929 16.5952 4.51222L14.7591 7.51498C14.5377 7.87109 14.6469 8.3394 15.003 8.56057C15.3594 8.78225 15.8272 8.67252 16.0486 8.31666L17.2195 6.43259L21.4262 13.6427C21.6789 14.1602 21.8127 14.725 21.8127 15.2945C21.8127 17.3948 20.0725 19.144 17.7646 19.3632C17.3472 19.4027 17.0408 19.7731 17.0806 20.1905C17.1179 20.5837 17.4485 20.878 17.8353 20.878C17.8595 20.878 17.8837 20.8771 17.9079 20.8746C20.9997 20.5813 23.3311 18.1822 23.3311 15.2945C23.3311 14.5333 23.1609 13.78 22.8406 13.085Z" fill="#F89D4E"/>
  <path d="M6.96912 11.4551C6.54976 11.4551 6.20996 11.7949 6.20996 12.2142V12.9734C6.20996 13.3928 6.54976 13.7326 6.96912 13.7326C7.38849 13.7326 7.72828 13.3928 7.72828 12.9734V12.2142C7.72828 11.7949 7.38849 11.4551 6.96912 11.4551Z" fill="#F89D4E"/>
  <path d="M12.0302 11.4551C11.6108 11.4551 11.271 11.7949 11.271 12.2142V12.9734C11.271 13.3928 11.6108 13.7326 12.0302 13.7326C12.4495 13.7326 12.7893 13.3928 12.7893 12.9734V12.2142C12.7893 11.7949 12.4495 11.4551 12.0302 11.4551Z" fill="#F89D4E"/>
  <path d="M11.3719 14.6453C11.0251 14.4167 10.5558 14.5138 10.3229 14.8581C10.3197 14.8628 9.99198 15.3383 9.49216 15.3383C9.00619 15.3383 8.70395 14.8981 8.68356 14.8675C8.46054 14.5168 7.99605 14.41 7.64242 14.6302C7.28618 14.8514 7.17683 15.3195 7.39813 15.6756C7.6706 16.1142 8.41839 16.8566 9.49214 16.8566C10.5607 16.8566 11.3177 16.1199 11.5965 15.6845C11.8207 15.3345 11.7189 14.8736 11.3719 14.6453Z" fill="#F89D4E"/>
</svg>