<svg xmlns="http://www.w3.org/2000/svg" width="22" height="22" viewBox="0 0 22 22" fill="none">
  <path d="M19.9352 10.3192C19.9351 10.3192 19.9351 10.3192 19.9349 10.3192C19.5557 10.3192 19.2481 10.6265 19.248 11.0059C19.2475 12.4426 18.8651 13.8638 18.1423 15.1157C17.0416 17.0222 15.2644 18.386 13.138 18.9557C11.0115 19.5252 8.79052 19.233 6.88417 18.1323C4.97771 17.0316 3.61404 15.2544 3.0443 13.128C2.47456 11.0016 2.76691 8.78067 3.86762 6.87421C5.23865 4.49951 7.69274 2.96614 10.432 2.7725C10.8105 2.74567 11.0956 2.4172 11.0688 2.03885C11.042 1.6604 10.7129 1.37609 10.3352 1.40203C7.13999 1.628 4.27738 3.41684 2.67781 6.18731C1.39368 8.41161 1.05256 11.0027 1.71723 13.4837C2.38202 15.9645 3.97308 18.038 6.19729 19.3221C7.67891 20.1775 9.32318 20.6144 10.9894 20.6144C11.8244 20.6144 12.6653 20.5046 13.4937 20.2827C15.9745 19.6179 18.0479 18.027 19.3321 15.8027C20.1752 14.3423 20.6212 12.6838 20.6219 11.0063C20.622 10.627 20.3145 10.3193 19.9352 10.3192Z" fill="#F89D4E"/>
  <path d="M13.1967 3.21955H17.6053L12.7468 7.43082C12.5301 7.61864 12.4529 7.92131 12.5532 8.19007C12.6533 8.45873 12.9099 8.63683 13.1967 8.63683H19.4466C19.826 8.63683 20.1335 8.32926 20.1335 7.94991C20.1335 7.57056 19.826 7.26298 19.4466 7.26298H15.038L19.8965 3.05172C20.1132 2.8639 20.1904 2.56123 20.0901 2.29246C19.9899 2.0238 19.7334 1.8457 19.4466 1.8457H13.1967C12.8174 1.8457 12.5098 2.15327 12.5098 2.53263C12.5098 2.91198 12.8174 3.21955 13.1967 3.21955Z" fill="#F89D4E"/>
  <path d="M7.63818 10.7123V11.3819C7.63818 11.7612 7.94576 12.0688 8.32511 12.0688C8.70446 12.0688 9.01203 11.7612 9.01203 11.3819V10.7123C9.01203 10.333 8.70446 10.0254 8.32511 10.0254C7.94576 10.0254 7.63818 10.333 7.63818 10.7123Z" fill="#F89D4E"/>
  <path d="M12.9954 10.7123V11.3819C12.9954 11.7612 13.3029 12.0688 13.6823 12.0688C14.0616 12.0688 14.3692 11.7612 14.3692 11.3819V10.7123C14.3692 10.333 14.0616 10.0254 13.6823 10.0254C13.3029 10.0254 12.9954 10.333 12.9954 10.7123Z" fill="#F89D4E"/>
  <path d="M10.2981 13.1891C10.0963 12.8719 9.67641 12.7759 9.35633 12.9746C9.034 13.1748 8.93505 13.5983 9.13529 13.9205C9.37756 14.3105 10.0423 14.9703 10.9971 14.9703C11.947 14.9703 12.6199 14.3155 12.8678 13.9286C13.0705 13.612 12.9786 13.1953 12.6648 12.9885C12.3511 12.7819 11.9264 12.8694 11.7156 13.1805C11.7127 13.1846 11.4284 13.5965 10.9971 13.5965C10.5783 13.5965 10.3164 13.2163 10.2981 13.1891Z" fill="#F89D4E"/>
</svg>