<svg xmlns="http://www.w3.org/2000/svg" width="25" height="25" viewBox="0 0 25 25" fill="none">
  <path d="M5.44776 4.23828C3.95752 4.23828 2.74512 5.45068 2.74512 6.94105C2.74512 8.43141 3.95752 9.64382 5.44776 9.64382C6.93812 9.64382 8.15053 8.43141 8.15053 6.94105C8.15053 5.45068 6.93815 4.23828 5.44776 4.23828ZM5.44776 8.11833C4.79872 8.11833 4.27061 7.59021 4.27061 6.94105C4.27061 6.29189 4.79872 5.76377 5.44776 5.76377C6.09692 5.76377 6.62504 6.29189 6.62504 6.94105C6.62504 7.59023 6.09692 8.11833 5.44776 8.11833Z" fill="#F84042"/>
  <path d="M22.0015 11.8137C21.096 7.32618 18.0633 4.99299 13.686 5.41123C9.11706 5.84761 7.86519 9.23716 7.81415 9.38129C7.80745 9.40002 7.80161 9.41904 7.79639 9.43827C6.84581 12.9793 9.23696 14.6097 10.6656 15.5837C11.0389 15.8382 11.4251 16.1014 11.5503 16.2712C12.1015 17.0182 11.975 17.6114 11.8147 18.3623C11.7406 18.7092 11.6641 19.0679 11.6557 19.4521C11.6286 20.6955 12.0625 21.7276 12.9104 22.4367C13.8512 23.2234 15.0501 23.4383 15.9325 23.4383C16.2708 23.4383 16.5628 23.4066 16.7757 23.3636C22.26 22.2497 22.6647 15.1012 22.0015 11.8137ZM20.2885 17.8414C19.6348 20.132 18.3508 21.4871 16.4727 21.8685C15.8498 21.9949 14.6363 21.8912 13.8891 21.2664C13.3955 20.8536 13.1638 20.271 13.181 19.4852C13.1862 19.2453 13.2446 18.971 13.3066 18.6808C13.4881 17.83 13.7368 16.6649 12.7779 15.3655C12.4986 14.9871 12.0474 14.6794 11.525 14.3233C10.1605 13.3929 8.61476 12.3389 9.26032 9.86918C9.36112 9.61718 10.3957 7.2579 13.831 6.92977C16.3502 6.68819 19.5532 7.39321 20.506 12.1153C20.7767 13.4569 20.8822 15.7614 20.2885 17.8414Z" fill="#F84042"/>
  <path d="M9.21252 5.17746C9.35865 5.40241 9.60321 5.52482 9.85287 5.52482C9.99527 5.52482 10.1394 5.48498 10.2676 5.40156C10.6209 5.17201 10.7213 4.69963 10.4917 4.34645L9.55332 2.90213C9.3239 2.54882 8.85114 2.44826 8.49821 2.67806C8.1449 2.9076 8.04459 3.37998 8.27414 3.73316L9.21252 5.17746Z" fill="#F84042"/>
  <path d="M11.9499 3.99198C12.0312 4.34504 12.3452 4.58391 12.6927 4.58391C12.7493 4.58391 12.8068 4.57759 12.8642 4.56442C13.2748 4.46993 13.531 4.06051 13.4367 3.65009L13.0962 2.16977C13.0018 1.75922 12.5923 1.50409 12.1818 1.59733C11.7713 1.69182 11.515 2.10124 11.6094 2.51166L11.9499 3.99198Z" fill="#F84042"/>
  <path d="M15.4966 4.56133C15.5573 4.57609 15.6179 4.58306 15.6776 4.58306C16.0213 4.58306 16.3332 4.34917 16.4182 4.00058L16.7776 2.52351C16.8771 2.11421 16.6261 1.70154 16.2168 1.60198C15.8062 1.50205 15.3948 1.75355 15.2953 2.16275L14.9359 3.63983C14.8363 4.0491 15.0873 4.46177 15.4966 4.56133Z" fill="#F84042"/>
  <path d="M18.1857 5.11459C18.3197 5.20955 18.4736 5.25525 18.6262 5.25525C18.8651 5.25525 19.1004 5.14327 19.249 4.93347L20.0818 3.75869C20.3255 3.41505 20.2443 2.93894 19.9007 2.69538C19.5568 2.45167 19.0808 2.53249 18.8373 2.87651L18.0046 4.05129C17.7609 4.39491 17.8421 4.87101 18.1857 5.11459Z" fill="#F84042"/>
  <path d="M12.1583 9.0332C11.7371 9.0332 11.3955 9.37472 11.3955 9.79596V10.5402C11.3955 10.9614 11.737 11.303 12.1583 11.303C12.5795 11.303 12.921 10.9614 12.921 10.5402V9.79596C12.921 9.37475 12.5795 9.0332 12.1583 9.0332Z" fill="#F84042"/>
  <path d="M17.3531 9.0332C16.9319 9.0332 16.5903 9.37472 16.5903 9.79596V10.5402C16.5903 10.9614 16.9319 11.303 17.3531 11.303C17.7743 11.303 18.1158 10.9614 18.1158 10.5402V9.79596C18.1158 9.37475 17.7743 9.0332 17.3531 9.0332Z" fill="#F84042"/>
  <path d="M16.631 11.7143C16.276 11.487 15.8043 11.5907 15.5773 11.9452C15.5743 11.9501 15.2505 12.4202 14.7477 12.4202C14.2591 12.4202 13.9552 11.9772 13.9351 11.9469C13.7109 11.595 13.2446 11.4879 12.8891 11.7087C12.5313 11.9311 12.4215 12.4014 12.6437 12.7592C12.9176 13.1998 13.6689 13.9457 14.7478 13.9457C15.8213 13.9457 16.5818 13.2054 16.862 12.768C17.0891 12.4132 16.9857 11.9415 16.631 11.7143Z" fill="#F84042"/>
</svg>