                        <svg xmlns="http://www.w3.org/2000/svg" width="66" height="66" viewBox="0 0 66 66" fill="none">
                            <path
                                d="M32.3039 42.6865L21.1148 49.2285C20.2189 49.7505 20.1996 51.0396 21.0826 51.5939L32.6262 57.891C33.3287 58.2713 34.1795 58.2713 34.8756 57.8845L46.2838 51.5746C47.1603 51.0267 47.1474 49.7506 46.2644 49.222L35.4105 42.7123C34.4566 42.1322 33.2642 42.1257 32.3039 42.6865Z"
                                fill="url(#paint0_linear_806_83092)" />
                            <path d="M7.10273 33.8826L6.90292 38.8842L10.609 40.0766L11.8594 33.4766L7.10273 33.8826Z"
                                fill="#68A3F2" />
                            <path
                                d="M30.7184 23.4292L9.57773 33.3937C8.22422 36.1458 6.00703 37.6089 7.28965 40.0646C7.56035 40.5802 7.89551 40.9927 8.28223 41.2312L31.3693 53.8318C32.7744 54.5987 34.4695 54.5923 35.8682 53.8189L58.6846 41.1989C60.4377 40.1097 60.9275 35.3788 59.1551 34.3153L36.9316 23.4679C35.0174 22.3206 32.6391 22.3077 30.7184 23.4292Z"
                                fill="url(#paint1_linear_806_83092)" />
                            <path
                                d="M30.7184 19.2515L8.34023 32.329C6.54843 33.3796 6.50976 35.9577 8.27577 37.0534L31.3629 49.654C32.768 50.421 34.4631 50.4146 35.8617 49.6411L58.6781 37.0212C60.4312 35.9319 60.4119 33.3732 58.6394 32.3097L36.9316 19.2901C35.0174 18.1429 32.6391 18.13 30.7184 19.2515Z"
                                fill="url(#paint2_linear_806_83092)" />
                            <path
                                d="M31.1889 26.175C31.1889 28.4605 26.9698 30.3129 21.7658 30.3129C16.5619 30.3129 12.3428 28.4605 12.3428 26.175C12.3428 23.8895 16.5619 22.0371 21.7658 22.0371C26.9698 22.0371 31.1889 23.8895 31.1889 26.175Z"
                                fill="url(#paint3_linear_806_83092)" />
                            <path
                                d="M39.7805 40.3547L40.6377 39.8004C40.8375 39.6715 40.8568 39.3814 40.6699 39.2332L39.6774 38.4146C39.5742 38.3309 39.4324 38.3115 39.31 38.3631L37.8984 38.9818C37.8211 39.0141 37.7244 39.0205 37.6471 38.9947L36.8285 38.7176C36.6803 38.666 36.5772 38.5178 36.59 38.3631L36.6158 37.9441C36.6287 37.7443 36.4676 37.5703 36.2613 37.5703H33.7219C33.5285 37.5703 33.3674 37.725 33.3674 37.9248V38.3115C33.3674 38.492 33.2256 38.6467 33.0451 38.666L32.2201 38.7369C32.1815 38.7369 32.1428 38.7369 32.1106 38.7305L30.4219 38.3309C30.2994 38.3051 30.177 38.3373 30.0867 38.4275L29.2295 39.2977C29.0619 39.4717 29.1135 39.7617 29.3326 39.8648L29.6871 40.0324C29.8096 40.0904 29.8934 40.2129 29.8934 40.3547V40.9799C29.8934 41.1281 29.7967 41.2635 29.6613 41.315L29.0361 41.5342C28.759 41.6309 28.7139 42.0047 28.9588 42.1594L30.1254 42.9135C30.2092 42.9715 30.3188 42.9844 30.4154 42.9586L32.0461 42.4816C32.1234 42.4623 32.2008 42.4623 32.2781 42.4945L33.3416 42.9199C33.477 42.9715 33.5608 43.1004 33.5608 43.2486V43.8223C33.5608 44.0156 33.7154 44.1768 33.9152 44.1768H36.5449C36.7383 44.1768 36.8994 44.0221 36.8994 43.8223V43.1455C36.8994 43.0037 36.9897 42.8748 37.1186 42.8168L37.7953 42.5461C37.8662 42.5203 37.9436 42.5139 38.0145 42.5332L39.658 42.9521C39.8063 42.9908 39.9609 42.9264 40.0447 42.7975L40.7602 41.676C40.8955 41.4633 40.7731 41.1861 40.5281 41.141L39.9029 41.025C39.716 40.9928 39.5936 40.8187 39.6193 40.6318C39.6322 40.5029 39.6902 40.4127 39.7805 40.3547ZM34.7016 41.7791C33.6445 41.7791 32.7938 41.3666 32.7938 40.8574C32.7938 40.3482 33.651 39.9357 34.7016 39.9357C35.7586 39.9357 36.6094 40.3482 36.6094 40.8574C36.6094 41.3666 35.7586 41.7791 34.7016 41.7791Z"
                                fill="#88AFEC" />
                            <path
                                d="M48.1014 31.544L35.707 24.0804C35.3461 23.8612 34.8949 23.8612 34.534 24.0804L20.032 32.7944C19.2908 33.2392 19.2973 34.3155 20.0449 34.7538L26.9736 38.8208C27.4377 39.0979 28.0371 39.0013 28.3981 38.6017C29.049 37.8798 30.4734 36.7712 33.4641 35.9011C36.835 34.9214 38.7234 36.4812 39.5678 37.5317C39.9287 37.9765 40.5604 38.0925 41.0502 37.796L48.1143 33.5034C48.8361 33.0522 48.8361 31.9888 48.1014 31.544ZM38.1047 32.0919C37.7051 32.6913 36.893 32.8524 36.2871 32.4528L32.7551 30.0938C32.1557 29.6942 31.9945 28.8821 32.3941 28.2763C32.7938 27.6704 33.6059 27.5157 34.2117 27.9153L37.7438 30.2743C38.3432 30.6804 38.5043 31.4925 38.1047 32.0919ZM45.1945 33.1683C44.7949 33.7677 43.9828 33.9288 43.377 33.5292L34.6113 27.6769C34.0119 27.2772 33.8508 26.4651 34.2504 25.8593C34.65 25.2599 35.4621 25.0987 36.068 25.4983L44.8336 31.3507C45.4395 31.7567 45.6006 32.5688 45.1945 33.1683Z"
                                fill="#88AFEC" />
                            <path d="M18.5689 13.6191L22.4103 21.8047L34.9658 23.8479L30.8279 15.5979L18.5689 13.6191Z"
                                fill="url(#paint4_linear_806_83092)" />
                            <path
                                d="M13.5352 16.0293L17.151 24.9689L31.2791 27.6309L30.9955 24.9174L20.7732 23.4414L17.0027 16.474L13.5352 16.0293Z"
                                fill="url(#paint5_linear_806_83092)" />
                            <path
                                d="M8.56583 20.1543L12.6457 28.8426L26.9285 31.44L26.6449 28.7266L16.4227 27.2506L12.6522 20.2832L8.56583 20.1543Z"
                                fill="url(#paint6_linear_806_83092)" />
                            <path
                                d="M34.3213 20.6318L34.7854 21.5471L34.9658 23.848L21.6627 21.2957L18.569 13.6193L18.382 11.3184L34.3213 20.6318Z"
                                fill="url(#paint7_linear_806_83092)" />
                            <path
                                d="M20.3672 21.8303L31.0922 25.3301L31.1566 27.5021L17.151 24.9691L13.5351 16.0295L13.3482 13.7285L20.3672 21.8303Z"
                                fill="url(#paint8_linear_806_83092)" />
                            <path
                                d="M16.0424 25.6467L26.7674 29.1465L26.9543 31.4475L12.6457 28.8436L8.56583 20.1553L9.02344 17.5449L16.0424 25.6467Z"
                                fill="url(#paint9_linear_806_83092)" />
                            <path d="M18.382 11.3184L22.2299 19.5104L34.7854 21.5471L30.6475 13.3035L18.382 11.3184Z"
                                fill="url(#paint10_linear_806_83092)" />
                            <path
                                d="M13.3482 13.7285L17.9695 23.2611L31.0922 25.3301L30.8086 22.6166L20.5928 21.1406L16.8158 14.1732L13.3482 13.7285Z"
                                fill="url(#paint11_linear_806_83092)" />
                            <path
                                d="M8.99765 17.5391L13.6189 27.0717L26.7416 29.1406L26.458 26.4271L16.2357 24.9512L12.4652 17.9838L8.99765 17.5391Z"
                                fill="url(#paint12_linear_806_83092)" />
                            <defs>
                                <linearGradient id="paint0_linear_806_83092" x1="33.6827" y1="61.5324" x2="33.6827"
                                    y2="44.4114" gradientUnits="userSpaceOnUse">
                                    <stop stop-color="#AFCBF7" />
                                    <stop offset="0.908" stop-color="#B1D2FB" />
                                </linearGradient>
                                <linearGradient id="paint1_linear_806_83092" x1="6.90421" y1="41.9808" x2="60.2661"
                                    y2="41.9808" gradientUnits="userSpaceOnUse">
                                    <stop stop-color="#3185F8" />
                                    <stop offset="1" stop-color="#88AFEC" />
                                </linearGradient>
                                <linearGradient id="paint2_linear_806_83092" x1="33.4773" y1="53.4602" x2="33.4773"
                                    y2="19.2182" gradientUnits="userSpaceOnUse">
                                    <stop stop-color="#99BCF1" />
                                    <stop offset="0.8879" stop-color="#5998F2" />
                                </linearGradient>
                                <linearGradient id="paint3_linear_806_83092" x1="12.3428" y1="29.6555" x2="31.1889"
                                    y2="29.6555" gradientUnits="userSpaceOnUse">
                                    <stop offset="0.0127658" stop-color="#A0C1F3" />
                                    <stop offset="0.0128658" stop-color="#7DA7E3" stop-opacity="0.39" />
                                </linearGradient>
                                <linearGradient id="paint4_linear_806_83092" x1="30.3643" y1="15.1349" x2="23.0526"
                                    y2="22.4466" gradientUnits="userSpaceOnUse">
                                    <stop stop-color="#5C86CA" />
                                    <stop offset="0.908" stop-color="#78A5F5" />
                                </linearGradient>
                                <linearGradient id="paint5_linear_806_83092" x1="25.1563" y1="19.0796" x2="18.2095"
                                    y2="26.0264" gradientUnits="userSpaceOnUse">
                                    <stop stop-color="#5C86CA" />
                                    <stop offset="0.908" stop-color="#78A5F5" />
                                </linearGradient>
                                <linearGradient id="paint6_linear_806_83092" x1="20.7297" y1="22.8137" x2="13.6732"
                                    y2="29.8702" gradientUnits="userSpaceOnUse">
                                    <stop stop-color="#5C86CA" />
                                    <stop offset="0.908" stop-color="#78A5F5" />
                                </linearGradient>
                                <linearGradient id="paint7_linear_806_83092" x1="28.9753" y1="15.283" x2="22.3117"
                                    y2="21.9466" gradientUnits="userSpaceOnUse">
                                    <stop stop-color="#5C86CA" />
                                    <stop offset="0.908" stop-color="#78A5F5" />
                                </linearGradient>
                                <linearGradient id="paint8_linear_806_83092" x1="24.316" y1="18.553" x2="17.5259"
                                    y2="25.343" gradientUnits="userSpaceOnUse">
                                    <stop stop-color="#5C86CA" />
                                    <stop offset="0.878125" stop-color="#78A5F5" />
                                    <stop offset="0.908" stop-color="#79A6F6" />
                                </linearGradient>
                                <linearGradient id="paint9_linear_806_83092" x1="20.0531" y1="22.4332" x2="13.1441"
                                    y2="29.3422" gradientUnits="userSpaceOnUse">
                                    <stop stop-color="#5C86CA" />
                                    <stop offset="0.908" stop-color="#78A5F5" />
                                </linearGradient>
                                <linearGradient id="paint10_linear_806_83092" x1="30.1803" y1="12.8369" x2="22.8686"
                                    y2="20.1486" gradientUnits="userSpaceOnUse">
                                    <stop stop-color="#B9D3FA" />
                                    <stop offset="0.908" stop-color="#6597E2" />
                                </linearGradient>
                                <linearGradient id="paint11_linear_806_83092" x1="24.9723" y1="16.7816" x2="18.2306"
                                    y2="23.5233" gradientUnits="userSpaceOnUse">
                                    <stop stop-color="#5F9AEB" />
                                    <stop offset="0.908" stop-color="#6FA9F7" />
                                </linearGradient>
                                <linearGradient id="paint12_linear_806_83092" x1="20.6211" y1="20.5925" x2="13.8793"
                                    y2="27.3342" gradientUnits="userSpaceOnUse">
                                    <stop stop-color="#8BB2ED" />
                                    <stop offset="0.908" stop-color="#88AFEC" />
                                </linearGradient>
                            </defs>
                        </svg>