<svg xmlns="http://www.w3.org/2000/svg" width="66" height="66" viewBox="0 0 66 66" fill="none">
  <path d="M32.3039 42.6865L21.1149 49.2285C20.219 49.7505 20.1996 51.0396 21.0826 51.5939L32.6262 57.891C33.3287 58.2713 34.1795 58.2713 34.8756 57.8845L46.2838 51.5746C47.1604 51.0267 47.1475 49.7505 46.2645 49.222L35.4106 42.7123C34.4567 42.1322 33.2643 42.1257 32.3039 42.6865Z" fill="url(#paint0_linear_806_83173)"/>
  <path d="M7.10276 33.8826L6.90295 38.8842L10.609 40.0766L11.8594 33.4766L7.10276 33.8826Z" fill="#F63037"/>
  <path d="M30.7184 23.4292L9.57776 33.3937C8.22425 36.1458 6.00706 37.6089 7.28968 40.0646C7.56038 40.5802 7.89554 40.9927 8.28226 41.2312L31.3694 53.8318C32.7744 54.5987 34.4696 54.5923 35.8682 53.8189L58.6846 41.1989C60.4377 40.1097 60.9276 35.3788 59.1551 34.3153L36.9317 23.4679C35.0174 22.3206 32.6391 22.3077 30.7184 23.4292Z" fill="url(#paint1_linear_806_83173)"/>
  <path d="M30.7184 19.2515L8.34026 32.329C6.54846 33.3796 6.50979 35.9577 8.27581 37.0534L31.3629 49.654C32.768 50.421 34.4631 50.4146 35.8617 49.6411L58.6782 37.0212C60.4313 35.9319 60.4119 33.3732 58.6395 32.3097L36.9317 19.2901C35.0174 18.1429 32.6391 18.13 30.7184 19.2515Z" fill="url(#paint2_linear_806_83173)"/>
  <path d="M31.1889 26.175C31.1889 28.4605 26.9698 30.3129 21.7658 30.3129C16.5619 30.3129 12.3428 28.4605 12.3428 26.175C12.3428 23.8895 16.5619 22.0371 21.7658 22.0371C26.9698 22.0371 31.1889 23.8895 31.1889 26.175Z" fill="url(#paint3_linear_806_83173)" fill-opacity="0.8"/>
  <path d="M39.7805 40.3547L40.6377 39.8004C40.8375 39.6715 40.8568 39.3814 40.6699 39.2332L39.6774 38.4146C39.5742 38.3309 39.4324 38.3115 39.31 38.3631L37.8984 38.9818C37.8211 39.0141 37.7244 39.0205 37.6471 38.9947L36.8285 38.7176C36.6803 38.666 36.5772 38.5178 36.59 38.3631L36.6158 37.9441C36.6287 37.7443 36.4676 37.5703 36.2613 37.5703H33.7219C33.5285 37.5703 33.3674 37.725 33.3674 37.9248V38.3115C33.3674 38.492 33.2256 38.6467 33.0451 38.666L32.2201 38.7369C32.1815 38.7369 32.1428 38.7369 32.1106 38.7305L30.4219 38.3309C30.2994 38.3051 30.177 38.3373 30.0867 38.4275L29.2295 39.2977C29.0619 39.4717 29.1135 39.7617 29.3326 39.8648L29.6871 40.0324C29.8096 40.0904 29.8934 40.2129 29.8934 40.3547V40.9799C29.8934 41.1281 29.7967 41.2635 29.6613 41.315L29.0361 41.5342C28.759 41.6309 28.7139 42.0047 28.9588 42.1594L30.1254 42.9135C30.2092 42.9715 30.3188 42.9844 30.4154 42.9586L32.0461 42.4816C32.1234 42.4623 32.2008 42.4623 32.2781 42.4945L33.3416 42.9199C33.477 42.9715 33.5608 43.1004 33.5608 43.2486V43.8223C33.5608 44.0156 33.7154 44.1768 33.9152 44.1768H36.5449C36.7383 44.1768 36.8994 44.0221 36.8994 43.8223V43.1455C36.8994 43.0037 36.9897 42.8748 37.1186 42.8168L37.7953 42.5461C37.8662 42.5203 37.9436 42.5139 38.0145 42.5332L39.658 42.9521C39.8063 42.9908 39.9609 42.9264 40.0447 42.7975L40.7602 41.676C40.8955 41.4633 40.7731 41.1861 40.5281 41.141L39.9029 41.025C39.716 40.9928 39.5936 40.8187 39.6193 40.6318C39.6322 40.5029 39.6902 40.4127 39.7805 40.3547ZM34.7016 41.7791C33.6445 41.7791 32.7938 41.3666 32.7938 40.8574C32.7938 40.3482 33.651 39.9357 34.7016 39.9357C35.7586 39.9357 36.6094 40.3482 36.6094 40.8574C36.6094 41.3666 35.7586 41.7791 34.7016 41.7791Z" fill="#C3FDFB"/>
  <path d="M48.1013 31.544L35.707 24.0804C35.3461 23.8612 34.8949 23.8612 34.534 24.0804L20.032 32.7944C19.2908 33.2392 19.2972 34.3155 20.0449 34.7538L26.9736 38.8208C27.4377 39.0979 28.0371 39.0013 28.398 38.6017C29.049 37.8798 30.4734 36.7712 33.464 35.9011C36.8349 34.9214 38.7234 36.4812 39.5678 37.5317C39.9287 37.9765 40.5603 38.0925 41.0502 37.796L48.1142 33.5034C48.8361 33.0522 48.8361 31.9888 48.1013 31.544ZM38.1047 32.0919C37.7051 32.6913 36.8929 32.8524 36.2871 32.4528L32.7551 30.0938C32.1556 29.6942 31.9945 28.8821 32.3941 28.2763C32.7937 27.6704 33.6058 27.5157 34.2117 27.9153L37.7437 30.2743C38.3431 30.6804 38.5043 31.4925 38.1047 32.0919ZM45.1945 33.1683C44.7949 33.7677 43.9828 33.9288 43.3769 33.5292L34.6113 27.6769C34.0119 27.2772 33.8508 26.4651 34.2504 25.8593C34.65 25.2599 35.4621 25.0987 36.0679 25.4983L44.8336 31.3507C45.4394 31.7567 45.6006 32.5688 45.1945 33.1683Z" fill="#C3FDFB"/>
  <path d="M21.7465 15.1205L11.2149 19.2648C10.551 20.425 10.5897 21.5271 11.1698 22.6357C11.2922 22.8677 11.4405 23.0547 11.6209 23.1642L22.043 28.8554C22.6746 29.2035 23.4416 29.197 24.0733 28.849L34.3729 23.1513C35.7264 21.9332 35.3074 19.2842 34.5018 18.8072L24.5502 15.1463C23.6866 14.6177 22.6102 14.6113 21.7465 15.1205Z" fill="url(#paint4_linear_806_83173)"/>
  <path d="M21.7465 12.5871L11.6403 18.491C10.8282 18.968 10.8153 20.1281 11.6081 20.6244L22.0301 26.3156C22.6618 26.6637 23.4288 26.6572 24.0604 26.3092L34.36 20.6115C35.1528 20.1217 35.1399 18.9615 34.3407 18.4846L24.5374 12.6065C23.6866 12.0908 22.6102 12.0844 21.7465 12.5871Z" fill="url(#paint5_linear_806_83173)"/>
  <path d="M16.4742 20.9416C16.3904 20.8835 16.3969 20.7611 16.4806 20.7095L21.4371 17.4353L24.6082 15.3406C24.6533 15.3083 24.7178 15.3083 24.7629 15.3406L29.5002 18.5181C29.6162 18.5955 29.5646 18.7759 29.4228 18.7759L27.1219 18.7888C27.0574 18.7888 26.9994 18.8404 26.9865 18.9048L26.5998 20.8771C26.5805 20.9802 26.4515 21.0253 26.3742 20.9609L22.7971 18.0927C22.7519 18.0541 22.681 18.0541 22.6295 18.0863L17.4152 21.5087C17.3637 21.541 17.2992 21.541 17.2541 21.5023L16.4742 20.9416Z" fill="white"/>
  <defs>
    <linearGradient id="paint0_linear_806_83173" x1="33.6828" y1="61.5324" x2="33.6828" y2="44.4114" gradientUnits="userSpaceOnUse">
      <stop stop-color="#B5FFF6"/>
      <stop offset="0.908" stop-color="#47D8BD" stop-opacity="0.68"/>
    </linearGradient>
    <linearGradient id="paint1_linear_806_83173" x1="6.90424" y1="41.9808" x2="60.2662" y2="41.9808" gradientUnits="userSpaceOnUse">
      <stop stop-color="#4FCAB6"/>
      <stop offset="1" stop-color="#33D1B1"/>
    </linearGradient>
    <linearGradient id="paint2_linear_806_83173" x1="33.4773" y1="53.4602" x2="33.4773" y2="19.2182" gradientUnits="userSpaceOnUse">
      <stop stop-color="#DCFFFA"/>
      <stop offset="0.8879" stop-color="#58FFE0"/>
    </linearGradient>
    <linearGradient id="paint3_linear_806_83173" x1="12.3428" y1="29.6555" x2="31.1889" y2="29.6555" gradientUnits="userSpaceOnUse">
      <stop offset="0.0128658" stop-color="#AFFFF7"/>
      <stop offset="0.159375" stop-color="#B8FFF6"/>
    </linearGradient>
    <linearGradient id="paint4_linear_806_83173" x1="10.7258" y1="-40.6553" x2="35.2506" y2="-40.6553" gradientUnits="userSpaceOnUse">
      <stop stop-color="#5AE2C9"/>
      <stop offset="0.908" stop-color="#45D8BF"/>
    </linearGradient>
    <linearGradient id="paint5_linear_806_83173" x1="22.9848" y1="-36.1204" x2="22.9848" y2="-51.5818" gradientUnits="userSpaceOnUse">
      <stop stop-color="#A7FBEF"/>
      <stop offset="0.908" stop-color="#B6FFF8"/>
      <stop offset="0.977083" stop-color="#61EAD4"/>
    </linearGradient>
  </defs>
</svg>