<svg xmlns="http://www.w3.org/2000/svg" width="66" height="66" viewBox="0 0 66 66" fill="none">
  <path d="M32.3039 42.6865L21.1148 49.2285C20.2189 49.7505 20.1996 51.0396 21.0826 51.5939L32.6262 57.891C33.3287 58.2713 34.1795 58.2713 34.8756 57.8845L46.2838 51.5746C47.1604 51.0267 47.1475 49.7505 46.2645 49.222L35.4106 42.7123C34.4566 42.1322 33.2643 42.1257 32.3039 42.6865Z" fill="url(#paint0_linear_806_83117)"/>
  <path d="M7.10273 33.8826L6.90292 38.8842L10.609 40.0766L11.8594 33.4766L7.10273 33.8826Z" fill="#F63037"/>
  <path d="M30.7184 23.4292L9.57773 33.3937C8.22422 36.1458 6.00703 37.6089 7.28965 40.0646C7.56035 40.5802 7.89551 40.9927 8.28223 41.2312L31.3693 53.8318C32.7744 54.5987 34.4695 54.5923 35.8682 53.8189L58.6846 41.1989C60.4377 40.1097 60.9275 35.3788 59.1551 34.3153L36.9316 23.4679C35.0174 22.3206 32.6391 22.3077 30.7184 23.4292Z" fill="url(#paint1_linear_806_83117)"/>
  <path d="M30.7184 19.2515L8.34023 32.329C6.54843 33.3796 6.50976 35.9577 8.27577 37.0534L31.3629 49.654C32.768 50.421 34.4631 50.4146 35.8617 49.6411L58.6781 37.0212C60.4313 35.9319 60.4119 33.3732 58.6395 32.3097L36.9316 19.2901C35.0174 18.1429 32.6391 18.13 30.7184 19.2515Z" fill="url(#paint2_linear_806_83117)"/>
  <path d="M21.7658 30.3129C26.97 30.3129 31.1889 28.4603 31.1889 26.175C31.1889 23.8897 26.97 22.0371 21.7658 22.0371C16.5616 22.0371 12.3428 23.8897 12.3428 26.175C12.3428 28.4603 16.5616 30.3129 21.7658 30.3129Z" fill="url(#paint3_linear_806_83117)"/>
  <path d="M19.1361 14.4759L8.60449 18.6203C7.94062 19.7804 7.97929 20.8826 8.55937 21.9912C8.68183 22.2232 8.83008 22.4101 9.01054 22.5197L19.4326 28.2109C20.0643 28.559 20.8312 28.5525 21.4629 28.2045L31.7625 22.5068C33.116 21.2886 32.6971 18.6396 31.8914 18.1627L21.9398 14.5017C21.0762 13.9732 20.0062 13.9668 19.1361 14.4759Z" fill="url(#paint4_linear_806_83117)"/>
  <path d="M19.1361 11.9438L9.02988 17.8541C8.21777 18.3311 8.20488 19.4912 8.99766 19.9875L19.4197 25.6787C20.0514 26.0268 20.8184 26.0203 21.45 25.6723L31.7496 19.9746C32.5424 19.4848 32.5295 18.3246 31.7303 17.8477L21.927 11.9696C21.0762 11.4475 20.0062 11.441 19.1361 11.9438Z" fill="url(#paint5_linear_806_83117)"/>
  <path d="M24.8725 16.3391L23.6092 18.2404C23.5705 18.3049 23.5834 18.3887 23.6414 18.4338L25.7812 20.0709C25.8908 20.1547 25.8264 20.3287 25.691 20.3223L21.7207 20.2514C21.6885 20.2514 21.6562 20.2578 21.6369 20.2772L19.1619 22.1012C19.091 22.1528 18.9943 22.127 18.9557 22.0561L17.8342 19.9291C17.8148 19.8904 17.7762 19.8647 17.7375 19.8582L14.0894 19.1944C13.9477 19.1686 13.9283 18.9752 14.0637 18.9236L17.1768 17.7764C17.2283 17.757 17.267 17.7055 17.267 17.6475L17.2992 15.527C17.2992 15.4238 17.4023 15.3594 17.4926 15.3981L20.7732 16.7903C20.799 16.8031 20.8248 16.8031 20.8506 16.7967L24.7307 16.1264C24.8531 16.1006 24.9434 16.236 24.8725 16.3391Z" fill="white"/>
  <path opacity="0.3" d="M46.9992 33.2576L35.2365 25.7037C34.9916 25.549 34.6822 25.5361 34.4244 25.6843L20.451 33.7796C19.9676 34.0568 19.9289 34.74 20.3736 35.0752L32.3168 44.0277C32.5811 44.2275 32.9484 44.2339 33.2256 44.047L47.0186 34.5531C47.4762 34.2373 47.4633 33.5605 46.9992 33.2576ZM26.6771 35.5134L25.1883 34.2759C25.1174 34.2115 25.1174 34.1019 25.2012 34.0439L28.2434 32.0007C28.2949 31.9621 28.3658 31.9685 28.4174 32.0072L29.9449 33.2769C30.0223 33.3414 30.0094 33.4574 29.932 33.5089L26.8512 35.5199C26.7996 35.5585 26.7287 35.5521 26.6771 35.5134ZM30.0223 37.9498L28.5334 36.7123C28.4625 36.6478 28.4625 36.5382 28.5463 36.4802L31.5885 34.4371C31.64 34.3984 31.7109 34.4048 31.7625 34.4435L33.29 35.7132C33.3674 35.7777 33.3609 35.8937 33.2771 35.9453L30.1898 37.9627C30.1383 37.9949 30.0674 37.9884 30.0223 37.9498ZM36.8414 38.5427L33.7605 40.5537C33.709 40.5859 33.6381 40.5859 33.593 40.5408L32.1041 39.3033C32.0332 39.2388 32.0332 39.1293 32.117 39.0712L35.1592 37.0281C35.2107 36.9894 35.2816 36.9959 35.3332 37.0345L36.8607 38.3043C36.9316 38.3751 36.9252 38.4912 36.8414 38.5427ZM43.5316 34.5144L40.309 36.6865C40.2252 36.738 40.1221 36.738 40.0447 36.6865L30.7377 30.1445C30.6023 30.0478 30.6023 29.8416 30.7506 29.7513L33.7348 27.8951C33.8121 27.8435 33.9088 27.85 33.9861 27.8951L43.5252 34.1212C43.667 34.2115 43.6734 34.4177 43.5316 34.5144Z" fill="#6BC4D4"/>
  <defs>
    <linearGradient id="paint0_linear_806_83117" x1="33.6828" y1="58.052" x2="33.6828" y2="40.931" gradientUnits="userSpaceOnUse">
      <stop stop-color="#D4F7FC"/>
      <stop offset="0.908" stop-color="#99DFEA"/>
    </linearGradient>
    <linearGradient id="paint1_linear_806_83117" x1="6.90421" y1="38.5003" x2="60.2661" y2="38.5003" gradientUnits="userSpaceOnUse">
      <stop stop-color="#7EC9D8"/>
      <stop offset="1" stop-color="#7EC8D8"/>
    </linearGradient>
    <linearGradient id="paint2_linear_806_83117" x1="33.4773" y1="49.9797" x2="33.4773" y2="15.7377" gradientUnits="userSpaceOnUse">
      <stop stop-color="#D2F5F7"/>
      <stop offset="0.8879" stop-color="#78D0E2"/>
    </linearGradient>
    <linearGradient id="paint3_linear_806_83117" x1="12.3428" y1="26.175" x2="31.1889" y2="26.175" gradientUnits="userSpaceOnUse">
      <stop offset="0.0127658" stop-color="#D4F4FA"/>
      <stop offset="0.0128658" stop-color="#D4F6FA" stop-opacity="0.5"/>
    </linearGradient>
    <linearGradient id="paint4_linear_806_83117" x1="8.11625" y1="21.2807" x2="32.6424" y2="21.2807" gradientUnits="userSpaceOnUse">
      <stop stop-color="#69C5D9"/>
      <stop offset="0.908" stop-color="#8DDEF3"/>
    </linearGradient>
    <linearGradient id="paint5_linear_806_83117" x1="20.3828" y1="25.8209" x2="20.3828" y2="10.3595" gradientUnits="userSpaceOnUse">
      <stop stop-color="#7CC3D1"/>
      <stop offset="0.908" stop-color="#A1E0F0"/>
    </linearGradient>
  </defs>
</svg>