<svg xmlns="http://www.w3.org/2000/svg" width="66" height="66" viewBox="0 0 66 66" fill="none">
  <path d="M32.3039 42.6865L21.1149 49.2285C20.219 49.7505 20.1996 51.0396 21.0826 51.5939L32.6262 57.891C33.3287 58.2713 34.1795 58.2713 34.8756 57.8845L46.2838 51.5746C47.1604 51.0267 47.1475 49.7505 46.2645 49.222L35.4106 42.7123C34.4567 42.1322 33.2643 42.1257 32.3039 42.6865Z" fill="url(#paint0_linear_806_83191)"/>
  <path d="M7.10276 33.8826L6.90295 38.8842L10.609 40.0766L11.8594 33.4766L7.10276 33.8826Z" fill="#7AC693"/>
  <path d="M30.7184 23.4292L9.57776 33.3937C8.22425 36.1458 6.00706 37.6089 7.28968 40.0646C7.56038 40.5802 7.89554 40.9927 8.28226 41.2312L31.3694 53.8318C32.7744 54.5987 34.4696 54.5923 35.8682 53.8189L58.6846 41.1989C60.4377 40.1097 60.9276 35.3788 59.1551 34.3153L36.9317 23.4679C35.0174 22.3206 32.6391 22.3077 30.7184 23.4292Z" fill="url(#paint1_linear_806_83191)"/>
  <path d="M30.7184 19.2515L8.34026 32.329C6.54846 33.3796 6.50979 35.9577 8.27581 37.0534L31.3629 49.654C32.768 50.421 34.4631 50.4146 35.8617 49.6411L58.6782 37.0212C60.4313 35.9319 60.4119 33.3732 58.6395 32.3097L36.9317 19.2901C35.0174 18.1429 32.6391 18.13 30.7184 19.2515Z" fill="url(#paint2_linear_806_83191)"/>
  <path d="M31.1889 26.175C31.1889 28.4605 26.9698 30.3129 21.7658 30.3129C16.5619 30.3129 12.3428 28.4605 12.3428 26.175C12.3428 23.8895 16.5619 22.0371 21.7658 22.0371C26.9698 22.0371 31.1889 23.8895 31.1889 26.175Z" fill="url(#paint3_linear_806_83191)"/>
  <path d="M49.8158 32.7861L47.6695 31.5293L41.8236 36.4729C41.7527 36.5309 41.6496 36.4728 41.6625 36.3891L42.0621 32.8764C42.0686 32.8184 42.017 32.7604 41.959 32.7668L37.9951 32.9988C37.8984 33.0053 37.8533 32.8828 37.9307 32.8248L43.1578 28.8932L38.3109 26.0508L19.2393 37.4912L32.4135 44.6262C32.8453 44.8582 33.3609 44.8518 33.7799 44.6004L49.8158 35.1902C50.7311 34.6553 50.7311 33.3275 49.8158 32.7861ZM35.533 41.3197C35.1914 41.5711 34.6564 41.5582 34.1988 41.2811L28.0113 37.5492C27.2186 37.0723 27.051 36.099 27.702 35.7188C28.05 35.5189 28.5398 35.5512 28.9652 35.8025L35.1527 39.5344C35.8939 39.9855 36.0938 40.9008 35.533 41.3197ZM37.95 38.6965C37.6084 38.9479 37.0734 38.935 36.6158 38.6578L30.4283 34.926C29.6355 34.449 29.468 33.4758 30.1189 33.0955C30.467 32.8957 30.9568 32.9279 31.3822 33.1793L37.5697 36.9111C38.3174 37.3623 38.5172 38.2775 37.95 38.6965Z" fill="#C6E6D1"/>
  <path d="M34.8949 24.0403C34.4695 23.7889 33.941 23.7825 33.5092 24.0274L16.4549 33.5536C15.4945 34.0885 15.5074 35.4743 16.4678 35.9963L16.7578 36.1575L36.6223 25.0651L34.8949 24.0403Z" fill="#C6E6D1"/>
  <path d="M16.6676 36.2084L19.0975 37.5748L19.2393 37.491L16.7643 36.1504L16.6676 36.2084Z" fill="#C6E6D1"/>
  <path d="M38.369 26.0125L36.6287 25.0586L38.311 26.0447L38.369 26.0125Z" fill="#C6E6D1"/>
  <path d="M47.734 31.4777L43.1578 28.8867L47.6696 31.5293L47.734 31.4777Z" fill="#C6E6D1"/>
  <path d="M37.3312 17.8469L26.1357 11.5627C25.6266 11.2791 25.0014 11.2791 24.4922 11.5756L8.99765 20.6119C7.92773 21.2371 7.90195 22.7711 8.94609 23.4349L21.1406 31.1306C21.7078 31.4916 22.4426 31.4658 22.9904 31.0726L26.69 28.5074L16.8932 21.9654C16.4162 21.6238 16.3711 20.9213 16.8094 20.5281C17.1316 20.2316 17.615 20.2058 17.976 20.4572L28.3787 27.2828L26.6965 28.5138L37.4859 20.6248C38.4656 19.9222 38.3818 18.4398 37.3312 17.8469Z" fill="url(#paint4_linear_806_83191)"/>
  <path d="M8.40468 18.576L8.23065 22.4432L22.0881 31.2475L26.6965 28.5146L28.9459 26.8646L38.1756 19.5234L38.3689 16.1461L34.3857 14.3027L8.40468 18.576Z" fill="url(#paint5_linear_806_83191)"/>
  <path d="M37.5246 14.7023L26.3291 8.41814C25.8199 8.13455 25.1947 8.13455 24.6855 8.43103L9.19101 17.4674C8.12109 18.0926 8.09531 19.6265 9.13945 20.2904L21.334 27.9861C21.9012 28.347 22.6359 28.3213 23.1838 27.9281L26.8834 25.3629L17.0865 18.8209C16.6096 18.4793 16.5644 17.7767 17.0027 17.3836C17.325 17.0871 17.8084 17.0613 18.1693 17.3127L28.5721 24.1383L26.8898 25.3693L37.6793 17.4867C38.659 16.7777 38.5752 15.2953 37.5246 14.7023Z" fill="url(#paint6_linear_806_83191)"/>
  <path d="M29.6098 10.2363L24.0926 14.0842C23.9443 14.1873 24.0217 14.4193 24.2022 14.4193L28.3078 14.3678C28.3981 14.3678 28.4754 14.4387 28.4754 14.5289L28.5979 18.2092C28.6043 18.351 28.7654 18.4219 28.8686 18.3316L34.9272 13.227L29.6098 10.2363Z" fill="white"/>
  <defs>
    <linearGradient id="paint0_linear_806_83191" x1="33.6828" y1="61.5324" x2="33.6828" y2="44.4114" gradientUnits="userSpaceOnUse">
      <stop stop-color="#C6E6D1"/>
      <stop offset="0.908" stop-color="#ECF7EF"/>
    </linearGradient>
    <linearGradient id="paint1_linear_806_83191" x1="6.90424" y1="41.9808" x2="60.2662" y2="41.9808" gradientUnits="userSpaceOnUse">
      <stop stop-color="#A0D6B2"/>
      <stop offset="1" stop-color="#54B674"/>
    </linearGradient>
    <linearGradient id="paint2_linear_806_83191" x1="33.4773" y1="53.4602" x2="33.4773" y2="19.2182" gradientUnits="userSpaceOnUse">
      <stop stop-color="#C6E6D1"/>
      <stop offset="0.8879" stop-color="#A0D6B2"/>
    </linearGradient>
    <linearGradient id="paint3_linear_806_83191" x1="12.3428" y1="29.6555" x2="31.1889" y2="29.6555" gradientUnits="userSpaceOnUse">
      <stop offset="0.0127658" stop-color="#C6E6D1"/>
      <stop offset="0.0760415" stop-color="#ECF7EF"/>
    </linearGradient>
    <linearGradient id="paint4_linear_806_83191" x1="8.18021" y1="21.3688" x2="38.173" y2="21.3688" gradientUnits="userSpaceOnUse">
      <stop stop-color="#7AC693"/>
      <stop offset="0.908" stop-color="#54B674"/>
    </linearGradient>
    <linearGradient id="paint5_linear_806_83191" x1="8.22958" y1="22.7733" x2="38.3664" y2="22.7733" gradientUnits="userSpaceOnUse">
      <stop stop-color="#A0D6B2"/>
      <stop offset="0.908" stop-color="#7AC693"/>
    </linearGradient>
    <linearGradient id="paint6_linear_806_83191" x1="8.37357" y1="18.2236" x2="38.3664" y2="18.2236" gradientUnits="userSpaceOnUse">
      <stop stop-color="#C6E6D1"/>
      <stop offset="0.908" stop-color="#7AC693"/>
    </linearGradient>
  </defs>
</svg>