<svg xmlns="http://www.w3.org/2000/svg" width="66" height="66" viewBox="0 0 66 66" fill="none">
  <path d="M32.3039 42.6865L21.1148 49.2285C20.2189 49.7505 20.1996 51.0396 21.0826 51.5939L32.6262 57.891C33.3287 58.2713 34.1795 58.2713 34.8756 57.8845L46.2838 51.5746C47.1603 51.0267 47.1474 49.7505 46.2644 49.222L35.4105 42.7123C34.4566 42.1322 33.2642 42.1257 32.3039 42.6865Z" fill="url(#paint0_linear_806_83150)"/>
  <path d="M7.10273 33.8826L6.90292 38.8842L10.609 40.0766L11.8594 33.4766L7.10273 33.8826Z" fill="#F63037"/>
  <path d="M30.7184 23.4292L9.57773 33.3937C8.22422 36.1458 6.00703 37.6089 7.28965 40.0646C7.56035 40.5802 7.89551 40.9927 8.28223 41.2312L31.3693 53.8318C32.7744 54.5987 34.4695 54.5923 35.8682 53.8189L58.6846 41.1989C60.4377 40.1097 60.9275 35.3788 59.1551 34.3153L36.9316 23.4679C35.0174 22.3206 32.6391 22.3077 30.7184 23.4292Z" fill="url(#paint1_linear_806_83150)"/>
  <path d="M30.7184 19.2515L8.34023 32.329C6.54843 33.3796 6.50976 35.9577 8.27577 37.0534L31.3629 49.654C32.768 50.421 34.4631 50.4146 35.8617 49.6411L58.6781 37.0212C60.4312 35.9319 60.4119 33.3732 58.6394 32.3097L36.9316 19.2901C35.0174 18.1429 32.6391 18.13 30.7184 19.2515Z" fill="url(#paint2_linear_806_83150)"/>
  <path d="M31.1889 26.175C31.1889 28.4605 26.9698 30.3129 21.7658 30.3129C16.5619 30.3129 12.3428 28.4605 12.3428 26.175C12.3428 23.8895 16.5619 22.0371 21.7658 22.0371C26.9698 22.0371 31.1889 23.8895 31.1889 26.175Z" fill="url(#paint3_linear_806_83150)"/>
  <path d="M32.5101 20.0391C32.5101 23.9191 27.9971 27.0645 22.4297 27.0645C16.8622 27.0645 12.3492 23.9191 12.3492 20.0391C12.3492 16.159 16.8622 13.0137 22.4297 13.0137C27.9971 13.0137 32.5101 16.159 32.5101 20.0391Z" fill="url(#paint4_linear_806_83150)"/>
  <path d="M29.6484 21.9391H14.7275C13.4127 21.9391 12.3428 20.8691 12.3428 19.5543V17.7109H32.5102V19.0773C32.5102 20.6564 31.2275 21.9391 29.6484 21.9391Z" fill="url(#paint5_linear_806_83150)"/>
  <path d="M32.5101 17.7188C32.5101 21.5988 27.9971 24.7441 22.4297 24.7441C16.8622 24.7441 12.3492 21.5988 12.3492 17.7188C12.3492 13.8387 16.8622 10.6934 22.4297 10.6934C27.9971 10.6934 32.5101 13.8387 32.5101 17.7188Z" fill="url(#paint6_linear_806_83150)"/>
  <path d="M37.4279 26.0781C33.5027 26.0781 30.3188 27.8184 30.3188 29.9646C30.3188 30.7832 30.7764 31.5373 31.5627 32.1625C24.3955 29.2943 17.8471 33.284 17.8471 33.284L24.7758 37.4025C28.0693 35.5076 31.5756 34.3926 34.9658 34.0768C34.6371 33.8254 34.2762 33.5805 33.8766 33.3355C34.9207 33.6643 36.1324 33.8576 37.4279 33.8576C41.3531 33.8576 44.5371 32.1174 44.5371 29.9711C44.5371 27.8248 41.3531 26.0781 37.4279 26.0781Z" fill="#FF8989" fill-opacity="0.31"/>
  <path d="M40.4121 39.0203L35.9842 35.933C35.591 35.6623 35.0561 35.759 34.7789 36.1457C34.5082 36.5389 34.6049 37.0738 34.9916 37.351L39.4195 40.4383C39.5678 40.5414 39.7418 40.593 39.9158 40.593C40.1865 40.593 40.4572 40.4641 40.6248 40.2256C40.8955 39.8324 40.7988 39.2975 40.4121 39.0203Z" fill="#FF8989" fill-opacity="0.31"/>
  <path d="M37.6213 40.9678L30.2607 35.8373C29.8676 35.5666 29.3326 35.6633 29.0555 36.05C28.7848 36.4432 28.8815 36.9781 29.2682 37.2553L36.6287 42.3857C36.777 42.4889 36.951 42.5404 37.125 42.5404C37.3957 42.5404 37.6664 42.4115 37.834 42.173C38.1111 41.7799 38.0145 41.2385 37.6213 40.9678Z" fill="#FF8989" fill-opacity="0.31"/>
  <path d="M34.8369 42.9063L30.7635 40.0639C30.3703 39.7932 29.8354 39.8898 29.5582 40.2766C29.2875 40.6697 29.3842 41.2047 29.7709 41.4818L33.8444 44.3242C33.9926 44.4273 34.1666 44.4789 34.3406 44.4789C34.6113 44.4789 34.882 44.35 35.0496 44.1115C35.3268 43.7184 35.2301 43.177 34.8369 42.9063Z" fill="#FF8989" fill-opacity="0.31"/>
  <path d="M26.5482 20.149L22.6875 18.1122C22.3717 17.9447 21.985 18.0671 21.8174 18.3829C21.6498 18.6988 21.7723 19.0855 22.0881 19.2531L25.9424 21.2898C26.0197 21.3285 26.0971 21.3542 26.1744 21.3607C26.4258 21.3865 26.6836 21.2576 26.8125 21.0191C26.9801 20.7033 26.8641 20.3165 26.5482 20.149Z" fill="white"/>
  <path d="M23.9056 18.5821C24.1183 18.6014 24.3375 18.5241 24.4793 18.3436C24.6146 18.176 24.6469 17.9569 24.5953 17.7635C26.1035 17.5702 27.2443 16.6743 27.3732 15.4626C27.5344 13.9479 26.0455 12.6009 23.9959 12.3817C21.9398 12.169 20.206 13.1809 20.0514 14.6956C20.0191 15.0178 20.0578 15.3337 20.1674 15.6366C19.8967 15.5915 19.626 15.5464 19.3488 15.5206C17.8922 15.3659 16.4549 15.4948 15.1916 15.888C14.85 15.9911 14.6631 16.352 14.7662 16.6936C14.8693 17.0352 15.2303 17.2221 15.5719 17.119C16.6676 16.7774 17.9308 16.6678 19.2135 16.8032C20.9215 16.9837 22.4683 17.5637 23.5834 18.4468C23.6736 18.5241 23.7896 18.5692 23.9056 18.5821ZM21.3275 14.8245C21.4049 14.0704 22.5908 13.529 23.8541 13.6579C25.1238 13.7932 26.168 14.5667 26.0842 15.3208C26.0068 16.0749 24.8209 16.6163 23.5576 16.4874C22.2879 16.3585 21.2437 15.5786 21.3275 14.8245Z" fill="white"/>
  <path d="M25.3559 21.438L21.5016 19.4013C21.1857 19.2337 20.799 19.3562 20.6314 19.672C20.4639 19.9878 20.5863 20.3745 20.9021 20.5421L24.7564 22.5788C24.8338 22.6175 24.9111 22.6433 24.9885 22.6497C25.2398 22.6755 25.4977 22.5466 25.6266 22.3081C25.7941 21.9988 25.6717 21.6056 25.3559 21.438Z" fill="white"/>
  <defs>
    <linearGradient id="paint0_linear_806_83150" x1="33.6827" y1="61.5324" x2="33.6827" y2="44.4114" gradientUnits="userSpaceOnUse">
      <stop stop-color="#FE5D5A" stop-opacity="0.1"/>
      <stop offset="0.908" stop-color="#EF1220" stop-opacity="0.5"/>
    </linearGradient>
    <linearGradient id="paint1_linear_806_83150" x1="6.90421" y1="41.9808" x2="60.2661" y2="41.9808" gradientUnits="userSpaceOnUse">
      <stop stop-color="#FF5E59"/>
      <stop offset="1" stop-color="#F01422"/>
    </linearGradient>
    <linearGradient id="paint2_linear_806_83150" x1="33.4773" y1="53.4602" x2="33.4773" y2="19.2182" gradientUnits="userSpaceOnUse">
      <stop stop-color="#FFE2E2"/>
      <stop offset="0.8879" stop-color="#FF8E8E"/>
    </linearGradient>
    <linearGradient id="paint3_linear_806_83150" x1="12.3428" y1="29.6555" x2="31.1889" y2="29.6555" gradientUnits="userSpaceOnUse">
      <stop stop-color="#E92700" stop-opacity="0.3"/>
      <stop offset="0.0127658" stop-color="#EF1220" stop-opacity="0.2"/>
    </linearGradient>
    <linearGradient id="paint4_linear_806_83150" x1="12.3492" y1="23.5228" x2="32.5101" y2="23.5228" gradientUnits="userSpaceOnUse">
      <stop stop-color="#FE5D5A"/>
      <stop offset="0.908" stop-color="#EF1220"/>
    </linearGradient>
    <linearGradient id="paint5_linear_806_83150" x1="12.3428" y1="23.3087" x2="32.5102" y2="23.3087" gradientUnits="userSpaceOnUse">
      <stop stop-color="#FE5D5A"/>
      <stop offset="0.908" stop-color="#EF1220"/>
    </linearGradient>
    <linearGradient id="paint6_linear_806_83150" x1="12.3492" y1="21.196" x2="32.5101" y2="21.196" gradientUnits="userSpaceOnUse">
      <stop stop-color="#FFA6A6"/>
      <stop offset="0.908" stop-color="#FF6B5D"/>
    </linearGradient>
  </defs>
</svg>