<svg xmlns="http://www.w3.org/2000/svg" width="66" height="66" viewBox="0 0 66 66" fill="none">
  <path d="M32.3039 42.6865L21.1148 49.2285C20.2189 49.7505 20.1996 51.0396 21.0826 51.5939L32.6262 57.891C33.3287 58.2713 34.1795 58.2713 34.8756 57.8845L46.2838 51.5746C47.1604 51.0267 47.1475 49.7505 46.2645 49.222L35.4106 42.7123C34.4566 42.1322 33.2643 42.1257 32.3039 42.6865Z" fill="#FFDBB6"/>
  <path d="M7.10274 33.8826L6.90293 38.8842L10.609 40.0766L11.8594 33.4766L7.10274 33.8826Z" fill="#F63037"/>
  <path d="M30.7184 23.4292L9.57773 33.3937C8.22422 36.1458 6.00703 37.6089 7.28965 40.0646C7.56035 40.5802 7.89551 40.9927 8.28223 41.2312L31.3693 53.8318C32.7744 54.5987 34.4695 54.5923 35.8682 53.8189L58.6846 41.1989C60.4377 40.1097 60.9275 35.3788 59.1551 34.3153L36.9316 23.4679C35.0174 22.3206 32.6391 22.3077 30.7184 23.4292Z" fill="#FFA150"/>
  <path d="M30.7184 19.2515L8.34024 32.329C6.54844 33.3796 6.50977 35.9577 8.27578 37.0534L31.3629 49.654C32.768 50.421 34.4631 50.4146 35.8617 49.6411L58.6781 37.0212C60.4313 35.9319 60.4119 33.3732 58.6395 32.3097L36.9316 19.2901C35.0174 18.1429 32.6391 18.13 30.7184 19.2515Z" fill="url(#paint0_linear_806_83131)"/>
  <path d="M31.0148 24.9941L33.5543 32.9477C33.6252 33.1668 33.8121 33.3344 34.0441 33.373L45.2203 35.3324L43.0934 27.7076C43.0354 27.4949 42.8613 27.3338 42.6422 27.2887L31.0148 24.9941Z" fill="#FF8989" fill-opacity="0.31"/>
  <path d="M21.0762 32.1736L23.6801 38.6898L32.0139 33.8365C32.175 33.7398 32.2523 33.5465 32.1879 33.366L29.8676 26.4824L21.6434 30.6719C21.0891 30.949 20.8441 31.6 21.0762 32.1736Z" fill="#FF8989" fill-opacity="0.31"/>
  <path d="M33.7605 34.8368L24.7178 39.8126L36.5578 42.4745C36.7641 42.5196 36.9832 42.4809 37.1572 42.3714L45.8326 36.8928L34.5727 34.7143C34.2955 34.6499 34.0119 34.695 33.7605 34.8368Z" fill="#FF8989" fill-opacity="0.31"/>
  <path d="M31.1889 26.175C31.1889 28.4605 26.9698 30.3129 21.7658 30.3129C16.5619 30.3129 12.3428 28.4605 12.3428 26.175C12.3428 23.8895 16.5619 22.0371 21.7658 22.0371C26.9698 22.0371 31.1889 23.8895 31.1889 26.175Z" fill="url(#paint1_linear_806_83131)" fill-opacity="0.8"/>
  <path d="M16.384 12.1428L8.45625 17.4989C8.34023 17.5827 8.28867 17.7309 8.34023 17.8663L10.8603 24.9948C10.899 25.1044 10.9893 25.1817 11.1053 25.201L25.401 27.8114C25.4848 27.8307 25.575 27.805 25.6394 27.7598L34.1279 21.727C34.2504 21.6368 34.2955 21.4757 34.2375 21.3339L31.0535 14.4374C31.0148 14.3407 30.9182 14.2698 30.815 14.2569L16.616 12.0977C16.5322 12.0848 16.4484 12.1042 16.384 12.1428Z" fill="#F89D4E"/>
  <path d="M34.0699 17.6932L34.2633 21.5023L21.0504 25.7305L9.6293 21.0447L8.34023 17.8736L8.46269 14.3867L34.0699 17.6932Z" fill="#F89D4E"/>
  <path d="M16.152 8.89431L8.91387 13.7927C8.52715 14.057 8.36602 14.5468 8.5207 14.9851L10.725 21.2113C10.8475 21.5593 11.1504 21.8107 11.5049 21.8816L25.1045 24.3631C25.3816 24.4082 25.6588 24.3502 25.8844 24.189L33.651 18.6783C34.057 18.3947 34.1924 17.8597 33.9926 17.4086L31.2146 11.3822C31.0729 11.0664 30.7764 10.8472 30.4348 10.7957L16.8867 8.73962C16.6289 8.69451 16.3711 8.75251 16.152 8.89431Z" fill="url(#paint2_linear_806_83131)"/>
  <path d="M27.0574 16.2937L21.9656 15.5847L20.0965 11.8658C19.8516 11.3759 19.2457 11.1761 18.7559 11.4211C18.266 11.666 18.0662 12.2718 18.3111 12.7617L20.0256 16.1713L16.0424 18.8912C15.5848 19.2005 15.4687 19.8257 15.7781 20.2769C15.9715 20.5605 16.2873 20.7152 16.6031 20.7152C16.7965 20.7152 16.9898 20.6572 17.1639 20.5412L21.5467 17.5505L26.7738 18.2724C26.8189 18.2789 26.8641 18.2789 26.9092 18.2789C27.399 18.2789 27.8309 17.9179 27.8953 17.4152C27.9855 16.8738 27.6053 16.3711 27.0574 16.2937Z" fill="white"/>
  <defs>
    <linearGradient id="paint0_linear_806_83131" x1="34.5009" y1="46" x2="36.0009" y2="24.5" gradientUnits="userSpaceOnUse">
      <stop stop-color="#FFE4BD"/>
      <stop offset="0.8879" stop-color="#FFB56E"/>
    </linearGradient>
    <linearGradient id="paint1_linear_806_83131" x1="27.499" y1="28" x2="15.499" y2="27.5" gradientUnits="userSpaceOnUse">
      <stop stop-color="#F6C08B"/>
      <stop offset="0.164583" stop-color="#FFDBB1"/>
    </linearGradient>
    <linearGradient id="paint2_linear_806_83131" x1="20.9996" y1="22.5" x2="16.9996" y2="11" gradientUnits="userSpaceOnUse">
      <stop stop-color="#FAC894"/>
      <stop offset="0.908" stop-color="#FFA455"/>
    </linearGradient>
  </defs>
</svg>